<svg width="86" height="71" viewBox="0 0 86 71" fill="none" xmlns="http://www.w3.org/2000/svg">
<path d="M81.4999 0.833008L79.6666 0.833008V52.1737C79.6666 54.1958 78.0148 55.833 75.9908 55.833C54.0366 55.8312 45.3484 62.3175 45.2659 62.3817L42.9816 64.138L40.7339 62.3817C40.6514 62.3175 31.9633 55.8312 10.0091 55.833C7.98509 55.833 6.33325 54.1958 6.33325 52.1737L6.33325 0.833008L4.49992 0.833008C2.47409 0.833008 0.833252 2.47384 0.833252 4.49967L0.833252 66.833C0.833252 68.8588 2.47409 70.4997 4.49992 70.4997H81.4999C83.5258 70.4997 85.1666 68.8588 85.1666 66.833V4.49967C85.1666 2.47384 83.5258 0.833008 81.4999 0.833008Z" fill="url(#paint0_linear)"/>
<defs>
<linearGradient id="paint0_linear" x1="42.9999" y1="0.833008" x2="42.9999" y2="70.4997" gradientUnits="userSpaceOnUse">
<stop stop-color="white"/>
<stop offset="1" stop-color="white"/>
</linearGradient>
</defs>
</svg>
